{
  "accessors": [
    {
      "bufferView": 2,
      "componentType": 5126,
      "count": 7700,
      "max": [
        20.600502014160156,
        43.4414176940918,
        39.02218246459961
      ],
      "min": [
        -44.90458297729492,
        0.09541589766740799,
        -34.3787727355957
      ],
      "type": "VEC3"
    },
    {
      "bufferView": 2,
      "byteOffset": 92400,
      "componentType": 5126,
      "count": 7700,
      "max": [
        1.0,
        1.0,
        1.0
      ],
      "min": [
        -1.0,
        -1.0,
        -1.0
      ],
      "type": "VEC3"
    },
    {
      "bufferView": 1,
      "componentType": 5126,
      "count": 7700,
      "max": [
        0.9942781925201416,
        0.9958193898200989
      ],
      "min": [
        0.0017354978481307626,
        0.011129133403301239
      ],
      "type": "VEC2"
    },
    {
      "bufferView": 0,
      "componentType": 5125,
      "count": 19644,
      "type": "SCALAR"
    },
    {
      "bufferView": 2,
      "byteOffset": 184800,
      "componentType": 5126,
      "count": 7700,
      "max": [
        20.697830200195313,
        43.53993225097656,
        39.11759948730469
      ],
      "min": [
        -45.0,
        -2.1511685119844637e-13,
        -34.47418975830078
      ],
      "type": "VEC3"
    },
    {
      "bufferView": 2,
      "byteOffset": 277200,
      "componentType": 5126,
      "count": 7700,
      "max": [
        1.0,
        1.0,
        1.0
      ],
      "min": [
        -1.0,
        -1.0,
        -1.0
      ],
      "type": "VEC3"
    },
    {
      "bufferView": 1,
      "byteOffset": 61600,
      "componentType": 5126,
      "count": 7700,
      "max": [
        0.9942781925201416,
        0.9958193898200989
      ],
      "min": [
        0.0017354978481307626,
        0.011129133403301239
      ],
      "type": "VEC2"
    },
    {
      "bufferView": 0,
      "byteOffset": 78576,
      "componentType": 5125,
      "count": 19644,
      "type": "SCALAR"
    },
    {
      "bufferView": 2,
      "byteOffset": 369600,
      "componentType": 5126,
      "count": 24,
      "max": [
        16.60196304321289,
        22.459646224975586,
        26.669191360473633
      ],
      "min": [
        -14.649879455566406,
        -8.237789154052734,
        -10.790769577026367
      ],
      "type": "VEC3"
    },
    {
      "bufferView": 2,
      "byteOffset": 369888,
      "componentType": 5126,
      "count": 24,
      "max": [
        0.8191519975662231,
        1.0,
        -0.0
      ],
      "min": [
        -0.42261824011802673,
        0.5735765099525452,
        -2.7164210436581016e-08
      ],
      "type": "VEC3"
    },
    {
      "bufferView": 1,
      "byteOffset": 123200,
      "componentType": 5126,
      "count": 24,
      "max": [
        0.804578423500061,
        0.7407872676849365
      ],
      "min": [
        0.4397823214530945,
        0.15059258043766022
      ],
      "type": "VEC2"
    },
    {
      "bufferView": 0,
      "byteOffset": 157152,
      "componentType": 5125,
      "count": 36,
      "type": "SCALAR"
    }
  ],
  "asset": {
    "extras": {
      "author": "MinH (https://sketchfab.com/minhchucong5)",
      "license": "CC-BY-4.0 (http://creativecommons.org/licenses/by/4.0/)",
      "source": "https://sketchfab.com/3d-models/noodle-3d-stylized-92e3967ef56147568a8c284eff9f80da",
      "title": "Noodle 3d Stylized"
    },
    "generator": "Sketchfab-14.87.0",
    "version": "2.0"
  },
  "bufferViews": [
    {
      "buffer": 0,
      "byteLength": 157296,
      "name": "floatBufferViews",
      "target": 34963
    },
    {
      "buffer": 0,
      "byteLength": 123392,
      "byteOffset": 157296,
      "byteStride": 8,
      "name": "floatBufferViews",
      "target": 34962
    },
    {
      "buffer": 0,
      "byteLength": 370176,
      "byteOffset": 280688,
      "byteStride": 12,
      "name": "floatBufferViews",
      "target": 34962
    }
  ],
  "buffers": [
    {
      "byteLength": 650864,
      "uri": "scene.bin"
    }
  ],
  "extensionsUsed": [
    "KHR_materials_unlit"
  ],
  "images": [
    {
      "uri": "textures/material_0_baseColor.png"
    },
    {
      "uri": "textures/DefaultMaterial_baseColor.png"
    }
  ],
  "materials": [
    {
      "alphaMode": "BLEND",
      "doubleSided": true,
      "emissiveFactor": [
        0.4723823920225281,
        0.4723823920225281,
        0.4723823920225281
      ],
      "extensions": {
        "KHR_materials_unlit": {}
      },
      "name": "material_0",
      "pbrMetallicRoughness": {
        "baseColorFactor": [
          1.0,
          1.0,
          1.0,
          0.18742914264119662
        ],
        "baseColorTexture": {
          "index": 0
        },
        "metallicFactor": 0.0
      }
    },
    {
      "doubleSided": true,
      "extensions": {
        "KHR_materials_unlit": {}
      },
      "name": "DefaultMaterial",
      "pbrMetallicRoughness": {
        "baseColorTexture": {
          "index": 1
        },
        "metallicFactor": 0.0
      }
    },
    {
      "emissiveFactor": [
        0.3504772585973595,
        0.3504772585973595,
        0.3504772585973595
      ],
      "emissiveTexture": {
        "index": 1
      },
      "extensions": {
        "KHR_materials_unlit": {}
      },
      "name": "Material.001",
      "pbrMetallicRoughness": {
        "baseColorFactor": [
          0.0,
          0.0,
          0.0,
          1.0
        ],
        "metallicFactor": 0.0
      }
    }
  ],
  "meshes": [
    {
      "name": "Object_0",
      "primitives": [
        {
          "attributes": {
            "NORMAL": 1,
            "POSITION": 0,
            "TEXCOORD_0": 2
          },
          "indices": 3,
          "material": 1,
          "mode": 4
        }
      ]
    },
    {
      "name": "Object_1",
      "primitives": [
        {
          "attributes": {
            "NORMAL": 5,
            "POSITION": 4,
            "TEXCOORD_0": 6
          },
          "indices": 7,
          "material": 2,
          "mode": 4
        }
      ]
    },
    {
      "name": "Object_2",
      "primitives": [
        {
          "attributes": {
            "NORMAL": 9,
            "POSITION": 8,
            "TEXCOORD_0": 10
          },
          "indices": 11,
          "material": 0,
          "mode": 4
        }
      ]
    }
  ],
  "nodes": [
    {
      "children": [
        1
      ],
      "matrix": [
        1.0,
        0.0,
        0.0,
        0.0,
        0.0,
        2.220446049250313e-16,
        -1.0,
        0.0,
        0.0,
        1.0,
        2.220446049250313e-16,
        0.0,
        0.0,
        0.0,
        0.0,
        1.0
      ],
      "name": "Sketchfab_model"
    },
    {
      "children": [
        2
      ],
      "name": "root"
    },
    {
      "children": [
        3,
        6
      ],
      "matrix": [
        1.0,
        0.0,
        0.0,
        0.0,
        0.0,
        2.220446049250313e-16,
        1.0,
        0.0,
        0.0,
        -1.0,
        2.220446049250313e-16,
        0.0,
        0.0,
        0.0,
        0.0,
        1.0
      ],
      "name": "GLTF_SceneRootNode"
    },
    {
      "children": [
        4,
        5
      ],
      "matrix": [
        -1.6858739316326353e-09,
        0.0,
        0.00999999977648244,
        0.0,
        0.0,
        0.009999999776482582,
        0.0,
        0.0,
        -0.00999999977648244,
        -0.0,
        -1.6858739316326353e-09,
        0.0,
        0.02321701869368553,
        0.0,
        0.12151088565587997,
        1.0
      ],
      "name": "wwood.023_0"
    },
    {
      "mesh": 0,
      "name": "Object_4"
    },
    {
      "mesh": 1,
      "name": "Object_5"
    },
    {
      "children": [
        7
      ],
      "matrix": [
        -0.0034202022284286313,
        -3.4524677511223365e-10,
        0.009396925680577844,
        0.0,
        -0.009396925680577844,
        -2.4174437022521963e-10,
        -0.0034202022284286395,
        0.0,
        3.4524677511223365e-10,
        -0.009999999776482573,
        -2.4174437022521963e-10,
        0.0,
        0.09256066381931305,
        0.4423829913139343,
        -0.08443591743707657,
        1.0
      ],
      "name": "khoi.001_1"
    },
    {
      "mesh": 2,
      "name": "Object_7"
    }
  ],
  "samplers": [
    {
      "magFilter": 9729,
      "minFilter": 9729,
      "wrapS": 10497,
      "wrapT": 10497
    },
    {
      "magFilter": 9729,
      "minFilter": 9987,
      "wrapS": 10497,
      "wrapT": 10497
    }
  ],
  "scene": 0,
  "scenes": [
    {
      "name": "Sketchfab_Scene",
      "nodes": [
        0
      ]
    }
  ],
  "textures": [
    {
      "sampler": 0,
      "source": 0
    },
    {
      "sampler": 1,
      "source": 1
    }
  ]
}
