{
  "accessors": [
    {
      "bufferView": 2,
      "componentType": 5126,
      "count": 1292,
      "max": [
        601.5828247070313,
        495.50079345703125,
        268.21893310546875
      ],
      "min": [
        -235.15774536132813,
        -357.79107666015625,
        -86.93324279785156
      ],
      "type": "VEC3"
    },
    {
      "bufferView": 2,
      "byteOffset": 15504,
      "componentType": 5126,
      "count": 1292,
      "max": [
        0.9798140525817871,
        0.9734299182891846,
        1.0
      ],
      "min": [
        -0.9950408935546875,
        -0.9988254904747009,
        -1.0
      ],
      "type": "VEC3"
    },
    {
      "bufferView": 1,
      "componentType": 5126,
      "count": 1292,
      "max": [
        1.0007914304733276,
        0.9997363686561584
      ],
      "min": [
        0.0013015760341659188,
        0.00224049249663949
      ],
      "type": "VEC2"
    },
    {
      "bufferView": 0,
      "componentType": 5125,
      "count": 5202,
      "type": "SCALAR"
    },
    {
      "bufferView": 2,
      "byteOffset": 31008,
      "componentType": 5126,
      "count": 386,
      "max": [
        223.53158569335938,
        89.98225402832031,
        -54.08012390136719
      ],
      "min": [
        -130.76956176757813,
        -334.14447021484375,
        -394.9590148925781
      ],
      "type": "VEC3"
    },
    {
      "bufferView": 2,
      "byteOffset": 35640,
      "componentType": 5126,
      "count": 386,
      "max": [
        0.9997006058692932,
        0.966886579990387,
        0.9938023686408997
      ],
      "min": [
        -0.9615929126739502,
        -0.9668868184089661,
        -1.0
      ],
      "type": "VEC3"
    },
    {
      "bufferView": 1,
      "byteOffset": 10336,
      "componentType": 5126,
      "count": 386,
      "max": [
        0.9978893995285034,
        0.9868541955947876
      ],
      "min": [
        0.050422534346580505,
        0.016070911660790443
      ],
      "type": "VEC2"
    },
    {
      "bufferView": 0,
      "byteOffset": 20808,
      "componentType": 5125,
      "count": 1347,
      "type": "SCALAR"
    }
  ],
  "asset": {
    "extras": {
      "author": "winterbyn (https://sketchfab.com/winterbyn)",
      "license": "CC-BY-4.0 (http://creativecommons.org/licenses/by/4.0/)",
      "source": "https://sketchfab.com/3d-models/zen-island-c7a46dc0731941a7b36e29a9825b5fe5",
      "title": "Zen Island"
    },
    "generator": "Sketchfab-12.74.0",
    "version": "2.0"
  },
  "bufferViews": [
    {
      "buffer": 0,
      "byteLength": 26196,
      "name": "floatBufferViews",
      "target": 34963
    },
    {
      "buffer": 0,
      "byteLength": 13424,
      "byteOffset": 26196,
      "byteStride": 8,
      "name": "floatBufferViews",
      "target": 34962
    },
    {
      "buffer": 0,
      "byteLength": 40272,
      "byteOffset": 39620,
      "byteStride": 12,
      "name": "floatBufferViews",
      "target": 34962
    }
  ],
  "buffers": [
    {
      "byteLength": 79892,
      "uri": "scene.bin"
    }
  ],
  "images": [
    {
      "uri": "textures/Material_4_baseColor.png"
    },
    {
      "uri": "textures/Material_6_baseColor.png"
    }
  ],
  "materials": [
    {
      "doubleSided": true,
      "name": "Material_4",
      "pbrMetallicRoughness": {
        "baseColorTexture": {
          "index": 0
        },
        "metallicFactor": 0.0,
        "roughnessFactor": 0.6
      }
    },
    {
      "alphaMode": "BLEND",
      "doubleSided": true,
      "name": "Material_6",
      "pbrMetallicRoughness": {
        "baseColorTexture": {
          "index": 1
        },
        "metallicFactor": 0.0,
        "roughnessFactor": 0.6
      }
    }
  ],
  "meshes": [
    {
      "name": "lower rock 2_Material #4_0",
      "primitives": [
        {
          "attributes": {
            "NORMAL": 1,
            "POSITION": 0,
            "TEXCOORD_0": 2
          },
          "indices": 3,
          "material": 0,
          "mode": 4
        }
      ]
    },
    {
      "name": "GeoSphere003_Material #6_0",
      "primitives": [
        {
          "attributes": {
            "NORMAL": 5,
            "POSITION": 4,
            "TEXCOORD_0": 6
          },
          "indices": 7,
          "material": 1,
          "mode": 4
        }
      ]
    }
  ],
  "nodes": [
    {
      "children": [
        1
      ],
      "matrix": [
        -1.0,
        1.60812262295773e-16,
        -2.8327693431939985e-16,
        0.0,
        -2.832769343193999e-16,
        -6.123234262925839e-17,
        1.0,
        0.0,
        1.6081226229577292e-16,
        1.0,
        6.123234262925839e-17,
        0.0,
        3.5991287231445313,
        12.869769096374517,
        -21.04177665710449,
        1.0
      ],
      "name": "Sketchfab_model"
    },
    {
      "children": [
        2
      ],
      "matrix": [
        1.0,
        0.0,
        0.0,
        0.0,
        0.0,
        0.0,
        1.0,
        0.0,
        0.0,
        -1.0,
        0.0,
        0.0,
        0.0,
        0.0,
        0.0,
        1.0
      ],
      "name": "07be29775fc843ddad9842be28a9b061.fbx"
    },
    {
      "children": [
        3,
        5
      ],
      "name": "RootNode"
    },
    {
      "children": [
        4
      ],
      "matrix": [
        -0.6738236196273053,
        9.951317777161007e-17,
        -0.24525144232258844,
        0.0,
        -0.24525144232258844,
        0.0,
        0.6738236196273055,
        0.0,
        5.970790666296604e-17,
        0.7170680165290833,
        1.592210844345761e-16,
        0.0,
        143.92811584472656,
        61.91352081298828,
        -11.322010040283203,
        1.0
      ],
      "name": "lower rock 2"
    },
    {
      "mesh": 0,
      "name": "lower rock 2_Material #4_0"
    },
    {
      "children": [
        6
      ],
      "matrix": [
        -0.27425884653313615,
        -0.45552380964293604,
        -0.8469239304369075,
        0.0,
        -0.8923286799521931,
        -0.20778233955226266,
        0.4007193859859598,
        0.0,
        -0.35851305699108094,
        0.8656353494506647,
        -0.3494908149699152,
        0.0,
        -234.920654296875,
        319.13897705078125,
        -86.9277114868164,
        1.0
      ],
      "name": "GeoSphere003"
    },
    {
      "mesh": 1,
      "name": "GeoSphere003_Material #6_0"
    }
  ],
  "samplers": [
    {
      "magFilter": 9729,
      "minFilter": 9987,
      "wrapS": 10497,
      "wrapT": 10497
    }
  ],
  "scene": 0,
  "scenes": [
    {
      "name": "Sketchfab_Scene",
      "nodes": [
        0
      ]
    }
  ],
  "textures": [
    {
      "sampler": 0,
      "source": 0
    },
    {
      "sampler": 0,
      "source": 1
    }
  ]
}
